<svg xmlns="http://www.w3.org/2000/svg" xmlns:xlink="http://www.w3.org/1999/xlink" width="64" zoomAndPan="magnify" viewBox="0 0 48 30.000001" height="40" preserveAspectRatio="xMidYMid meet" version="1.0"><defs><clipPath id="id1"><path d="M 0.773438 12 L 7 12 L 7 16 L 0.773438 16 Z M 0.773438 12 " clip-rule="nonzero"/></clipPath><clipPath id="id2"><path d="M 15 0.632812 L 36 0.632812 L 36 4 L 15 4 Z M 15 0.632812 " clip-rule="nonzero"/></clipPath><clipPath id="id3"><path d="M 15 0.632812 L 42 0.632812 L 42 1 L 15 1 Z M 15 0.632812 " clip-rule="nonzero"/></clipPath><clipPath id="id4"><path d="M 28 0.632812 L 32 0.632812 L 32 4 L 28 4 Z M 28 0.632812 " clip-rule="nonzero"/></clipPath><clipPath id="id5"><path d="M 19 0.632812 L 24 0.632812 L 24 4 L 19 4 Z M 19 0.632812 " clip-rule="nonzero"/></clipPath><clipPath id="id6"><path d="M 15 0.632812 L 20 0.632812 L 20 1 L 15 1 Z M 15 0.632812 " clip-rule="nonzero"/></clipPath><clipPath id="id7"><path d="M 38 0.632812 L 42 0.632812 L 42 1 L 38 1 Z M 38 0.632812 " clip-rule="nonzero"/></clipPath><clipPath id="id8"><path d="M 37 3 L 47.226562 3 L 47.226562 23 L 37 23 Z M 37 3 " clip-rule="nonzero"/></clipPath><clipPath id="id9"><path d="M 12 0.632812 L 16 0.632812 L 16 6 L 12 6 Z M 12 0.632812 " clip-rule="nonzero"/></clipPath><clipPath id="id10"><path d="M 19 19 L 38 19 L 38 28.941406 L 19 28.941406 Z M 19 19 " clip-rule="nonzero"/></clipPath></defs><g clip-path="url(#id1)"><path fill="#808080" d="M 6.386719 15.503906 L 0.78125 15.503906 L 0.78125 12.320312 L 6.386719 12.320312 L 6.386719 15.503906 " fill-opacity="1" fill-rule="nonzero"/></g><path fill="#2f7ebf" d="M 9.589844 21.070312 L 6.386719 21.070312 L 6.386719 5.160156 L 9.589844 5.160156 L 9.589844 21.070312 " fill-opacity="1" fill-rule="nonzero"/><path fill="#2f7ebf" d="M 9.589844 22.664062 L 12.792969 22.664062 L 12.792969 3.570312 L 9.589844 3.570312 L 9.589844 22.664062 " fill-opacity="1" fill-rule="nonzero"/><path fill="#215d9d" d="M 11.191406 22.664062 L 12.792969 22.664062 L 12.792969 3.570312 L 11.191406 3.570312 L 11.191406 22.664062 " fill-opacity="1" fill-rule="nonzero"/><path fill="#215d9d" d="M 7.988281 21.070312 L 9.589844 21.070312 L 9.589844 5.160156 L 7.988281 5.160156 L 7.988281 21.070312 " fill-opacity="1" fill-rule="nonzero"/><g clip-path="url(#id2)"><path fill="#0b3b6d" d="M 35.207031 3.570312 L 15.992188 3.570312 L 15.992188 0.386719 L 35.207031 0.386719 L 35.207031 3.570312 " fill-opacity="1" fill-rule="nonzero"/></g><g clip-path="url(#id3)"><path fill="#2f7ebf" d="M 41.613281 -9.160156 L 15.992188 -9.160156 L 15.992188 -2.796875 L 19.195312 -2.796875 L 19.195312 0.386719 L 38.410156 0.386719 L 38.410156 -2.796875 L 41.613281 -2.796875 L 41.613281 -9.160156 " fill-opacity="1" fill-rule="nonzero"/></g><g clip-path="url(#id4)"><path fill="#215d9d" d="M 28.003906 1.976562 C 28.003906 2.855469 28.71875 3.570312 29.605469 3.570312 C 30.488281 3.570312 31.207031 2.855469 31.207031 1.976562 C 31.207031 1.097656 30.488281 0.386719 29.605469 0.386719 C 28.71875 0.386719 28.003906 1.097656 28.003906 1.976562 " fill-opacity="1" fill-rule="nonzero"/></g><g clip-path="url(#id5)"><path fill="#215d9d" d="M 19.996094 1.976562 C 19.996094 2.855469 20.714844 3.570312 21.597656 3.570312 C 22.484375 3.570312 23.199219 2.855469 23.199219 1.976562 C 23.199219 1.097656 22.484375 0.386719 21.597656 0.386719 C 20.714844 0.386719 19.996094 1.097656 19.996094 1.976562 " fill-opacity="1" fill-rule="nonzero"/></g><g clip-path="url(#id6)"><path fill="#215d9d" d="M 15.992188 -2.796875 L 15.992188 0.386719 L 19.195312 0.386719 L 19.195312 -2.796875 L 15.992188 -2.796875 " fill-opacity="1" fill-rule="nonzero"/></g><g clip-path="url(#id7)"><path fill="#215d9d" d="M 38.410156 -2.796875 L 41.613281 -2.796875 L 41.613281 0.386719 L 38.410156 0.386719 L 38.410156 -2.796875 " fill-opacity="1" fill-rule="nonzero"/></g><g clip-path="url(#id8)"><path fill="#2f7ebf" d="M 47.21875 6.75 L 47.21875 19.480469 C 47.21875 21.238281 45.785156 22.664062 44.015625 22.664062 L 37.609375 22.664062 L 37.609375 3.570312 L 44.015625 3.570312 C 45.785156 3.570312 47.21875 4.992188 47.21875 6.75 " fill-opacity="1" fill-rule="nonzero"/></g><path fill="#2f7ebf" d="M 37.609375 22.664062 L 12.792969 22.664062 L 12.792969 3.570312 L 37.609375 3.570312 L 37.609375 22.664062 " fill-opacity="1" fill-rule="nonzero"/><path fill="#0b3b6d" d="M 39.210938 3.570312 L 39.210938 22.664062 L 37.609375 22.664062 L 37.609375 3.570312 L 39.210938 3.570312 " fill-opacity="1" fill-rule="nonzero"/><path fill="#215d9d" d="M 17.59375 6.75 L 12.792969 6.75 L 12.792969 3.570312 L 17.59375 3.570312 L 17.59375 6.75 " fill-opacity="1" fill-rule="nonzero"/><path fill="#215d9d" d="M 17.59375 22.664062 L 12.792969 22.664062 L 12.792969 19.480469 L 17.59375 19.480469 L 17.59375 22.664062 " fill-opacity="1" fill-rule="nonzero"/><path fill="#215d9d" d="M 41.613281 8.34375 C 41.613281 8.78125 41.253906 9.136719 40.8125 9.136719 C 40.371094 9.136719 40.011719 8.78125 40.011719 8.34375 C 40.011719 7.902344 40.371094 7.546875 40.8125 7.546875 C 41.253906 7.546875 41.613281 7.902344 41.613281 8.34375 " fill-opacity="1" fill-rule="nonzero"/><path fill="#72a8d4" d="M 44.015625 16.296875 L 40.8125 16.296875 L 40.8125 11.523438 L 44.015625 11.523438 L 44.015625 16.296875 " fill-opacity="1" fill-rule="nonzero"/><path fill="#215d9d" d="M 37.609375 13.910156 L 16.792969 13.910156 L 16.792969 12.320312 L 37.609375 12.320312 L 37.609375 13.910156 " fill-opacity="1" fill-rule="nonzero"/><path fill="#215d9d" d="M 37.609375 10.730469 L 16.792969 10.730469 L 16.792969 9.136719 L 37.609375 9.136719 L 37.609375 10.730469 " fill-opacity="1" fill-rule="nonzero"/><path fill="#215d9d" d="M 37.609375 7.546875 L 16.792969 7.546875 L 16.792969 5.957031 L 37.609375 5.957031 L 37.609375 7.546875 " fill-opacity="1" fill-rule="nonzero"/><g clip-path="url(#id9)"><path fill="#2f7ebf" d="M 15.992188 5.160156 L 12.792969 5.160156 L 12.792969 0.386719 L 15.992188 0.386719 L 15.992188 5.160156 " fill-opacity="1" fill-rule="nonzero"/></g><path fill="#2f7ebf" d="M 15.992188 25.84375 L 12.792969 25.84375 L 12.792969 21.070312 L 15.992188 21.070312 L 15.992188 25.84375 " fill-opacity="1" fill-rule="nonzero"/><path fill="#215d9d" d="M 37.609375 17.09375 L 16.792969 17.09375 L 16.792969 15.503906 L 37.609375 15.503906 L 37.609375 17.09375 " fill-opacity="1" fill-rule="nonzero"/><path fill="#215d9d" d="M 37.609375 22.664062 L 16.792969 22.664062 L 16.792969 18.683594 L 37.609375 18.683594 L 37.609375 22.664062 " fill-opacity="1" fill-rule="nonzero"/><g clip-path="url(#id10)"><path fill="#2f7ebf" d="M 37.609375 25.84375 L 37.609375 29.027344 L 19.195312 29.027344 L 19.195312 25.84375 L 22.398438 25.84375 L 22.398438 19.480469 L 34.40625 19.480469 L 34.40625 25.84375 L 37.609375 25.84375 " fill-opacity="1" fill-rule="nonzero"/></g><path fill="#72a8d4" d="M 24 19.480469 L 24 27.4375 L 19.195312 27.4375 L 19.195312 25.84375 L 22.398438 25.84375 L 22.398438 19.480469 L 24 19.480469 " fill-opacity="1" fill-rule="nonzero"/><path fill="#215d9d" d="M 32.808594 19.480469 L 32.808594 27.4375 L 37.609375 27.4375 L 37.609375 25.84375 L 34.40625 25.84375 L 34.40625 19.480469 L 32.808594 19.480469 " fill-opacity="1" fill-rule="nonzero"/></svg>